<svg width="277" height="368" viewBox="0 0 277 368" fill="none" xmlns="http://www.w3.org/2000/svg">
<g clip-path="url(#clip0_20_504)">
<path d="M240.88 139.135C227.369 128.322 206.306 123.439 184.172 127.629C178.19 128.761 172.478 130.505 167.162 132.702C167.846 130.587 167.112 128.343 165.027 127.149C162.57 125.628 159.255 126.124 157.129 127.982C158.71 125.697 158.154 122.758 155.697 121.237C153.066 119.617 149.154 120.225 147.124 122.595C145.094 124.965 145.573 128.316 148.204 129.937C150.66 131.457 153.975 130.962 156.102 129.104C155.123 130.48 154.965 132.099 155.53 133.448C155.086 132.738 154.516 132.184 153.797 131.658C151.166 130.038 147.254 130.646 145.224 133.016C143.194 135.386 143.673 138.738 146.304 140.358C148.239 141.58 150.705 141.511 152.677 140.475C148.578 143.369 144.85 146.591 141.793 150.082C141.923 149.131 142.053 148.179 142.182 147.228C145.833 117.411 153.385 93.4758 153.486 93.1919C153.563 92.7801 153.616 92.2406 153.693 91.8289C156.158 91.7593 158.575 91.4341 160.968 90.9811C171.886 88.9144 182.772 83.4114 191.361 74.769C202.678 63.3594 206.965 49.1768 204.068 37.1482C203.85 35.9979 202.61 35.1737 201.365 35.1445C197.78 35.0288 194.268 35.2966 190.529 36.0044C179.611 38.0711 168.725 43.5741 160.136 52.2165C153.626 58.7443 149.602 66.1257 147.768 73.6218C146.129 68.2393 142.946 62.8843 138.216 58.352C128.879 49.1311 115.681 44.8778 103.325 45.8929C103.175 45.9213 103.026 45.9496 103.026 45.9496C101.829 46.1761 100.754 47.0416 100.499 48.149C97.8511 58.7118 101.047 70.6837 110.383 79.9045C118.754 88.1166 130.259 92.4257 141.264 92.4606C140.325 95.6833 137.889 104.088 135.386 115.417C135.395 113.827 134.631 112.251 133.043 111.227C130.413 109.607 126.5 110.215 124.47 112.585C123.342 113.99 123.01 115.51 123.45 117.015C123.03 116.433 122.46 115.878 121.741 115.353C119.111 113.732 115.198 114.341 113.168 116.711C112.416 117.648 112.011 118.783 111.906 119.862C109.922 118.384 107.639 116.963 105.38 115.67C89.9649 107.07 72.126 104.49 56.1236 107.519C52.983 108.113 50.0403 108.935 47.1218 109.885C45.9495 110.239 45.072 111.332 45.116 112.383C45.2746 128.769 55.5171 145.232 73.8862 155.523C89.3015 164.123 107.14 166.703 123.143 163.674C124.937 163.334 126.708 162.867 128.329 162.427C127.52 173.701 127.511 184.294 128.404 193.922C127.621 191.422 124.716 189.986 121.725 190.552C118.434 191.175 116.178 193.985 116.71 196.797C117.194 199.353 119.849 201.101 122.739 200.819C119.622 201.541 117.491 204.195 118.023 207.007C118.556 209.819 121.683 211.61 124.973 210.987C127.665 210.478 129.618 208.519 129.979 206.333C130.531 210.067 131.382 213.746 132.209 217.296C127.45 213.431 121.591 210.304 114.854 208.269C113.86 207.928 112.89 207.714 111.92 207.501C112.543 207.515 113.165 207.53 113.913 207.388C117.203 206.765 119.459 203.955 118.927 201.143C118.395 198.332 115.267 196.541 111.977 197.164C108.687 197.786 106.43 200.597 106.963 203.408C107.277 205.07 108.465 206.434 110.13 207.045C101.874 205.166 93.3335 205.062 85.5566 206.534C79.724 207.638 74.3598 209.58 69.5895 212.204C68.4656 212.814 67.7861 214.134 68.1534 215.256C71.6725 227.299 82.6693 237.927 98.6278 242.849C108.496 245.88 118.653 246.34 128.075 244.556C132.711 243.679 137.101 242.318 141.22 240.347C141.713 241.313 142.206 242.278 142.848 243.216C174.721 297.022 220.035 311.347 221.999 311.902C223.142 312.215 224.238 312.272 225.285 312.074C227.229 311.706 229.004 310.443 229.91 308.683C231.245 305.915 229.767 303.018 226.635 302.022C226.485 302.05 215.748 298.522 201.408 289.057C188.656 280.615 170.762 265.468 155.584 240.937C161.63 241.779 167.955 241.64 174.386 240.423C180.817 239.205 187.503 236.881 193.672 233.462C208.533 225.221 217.568 212.39 219.206 199.768C219.288 198.561 218.621 197.496 217.304 197.083C209.399 194.608 200.338 194.205 191.215 195.932C184.784 197.149 178.098 199.474 171.929 202.893C169.681 204.112 167.607 205.432 165.707 206.851C165.841 205.104 165.054 203.4 163.292 202.277C160.662 200.657 156.749 201.265 154.719 203.635C154.444 203.82 154.343 204.103 154.242 204.387C154.651 202.456 153.965 200.468 152.029 199.246C149.399 197.626 145.486 198.234 143.456 200.604C141.426 202.974 141.906 206.325 144.536 207.946C145.753 208.642 147.195 208.899 148.566 208.772C147.393 209.126 146.12 209.764 145.392 210.829C144.365 211.95 144.009 213.341 144.251 214.619C140.643 200.475 139.491 183.747 140.542 164.749C153.916 173.205 172.87 176.766 192.611 173.029C214.745 168.839 232.567 156.596 241.19 141.592C242.039 141.166 241.797 139.888 240.88 139.135ZM187.195 71.586C179.909 78.9228 170.344 84.0431 160.324 85.94C158.679 86.2514 157.009 86.435 155.49 86.5903L164.604 77.4513L174.509 78.2238C174.659 78.1955 174.809 78.1672 174.958 78.1389C175.556 78.0257 176.082 77.529 176.284 76.9611C176.462 76.2655 175.869 75.5836 175.072 75.4695L167.208 74.8401L172.941 69.1212L182.871 70.0215C183.021 69.9932 183.17 69.9649 183.32 69.9366C183.918 69.8233 184.444 69.3267 184.496 68.7871C184.675 68.0915 184.081 67.4095 183.285 67.2955L175.396 66.5383L180.98 60.8476L191.035 61.5919C191.185 61.5636 191.334 61.5352 191.484 61.5069C192.082 61.3937 192.608 60.897 192.81 60.3292C192.988 59.6335 192.394 58.9516 191.598 58.8375L183.584 58.2365L199.584 42.1012C199.975 52.3533 195.634 62.9719 187.195 71.586ZM165.122 55.6414C172.409 48.3046 181.973 43.1842 191.994 41.2874C193.788 40.9476 195.458 40.764 197.301 40.6799L181.175 56.9713L179.145 50.339C179.024 49.7 178.156 49.2025 177.282 49.5002C176.385 49.6701 175.908 50.4224 176.203 51.1609L178.697 59.4264L172.987 65.2732L171.083 58.4848C170.937 57.7179 170.093 57.3482 169.22 57.6459C168.322 57.8158 167.845 58.5681 168.14 59.3066L170.509 67.7282L164.925 73.4189L162.87 66.6588C162.749 66.0197 161.881 65.5223 161.007 65.8199C160.11 65.9898 159.633 66.7421 159.928 67.4806L162.446 75.8739L153.332 85.013C152.217 75.0302 156.534 64.2838 165.122 55.6414ZM133.962 62.0697C140.648 68.7473 144.112 77.2263 143.345 85.4473L134.206 76.4538L136.461 69.54C136.639 68.8443 136.195 68.1341 135.398 68.0201C134.602 67.906 133.753 68.3315 133.575 69.0272L131.778 74.2657L127.965 70.4864L130.243 63.7005C130.421 63.0048 129.977 62.2946 129.181 62.1805C128.385 62.0664 127.536 62.4919 127.357 63.1876L125.537 68.2983L121.723 64.519L124.001 57.7331C124.179 57.0374 123.735 56.3272 122.939 56.2131C122.143 56.0991 121.294 56.5246 121.116 57.2202L119.444 62.3026L108.573 51.519C118.184 51.553 127.276 55.3921 133.962 62.0697ZM115.433 76.3008C108.573 69.5237 105.234 60.8886 106.127 52.5115L117.197 63.5224L111.615 64.3143C110.867 64.4559 110.216 65.1087 110.361 65.8755C110.506 66.6424 111.201 67.0404 112.099 66.8705L119.625 65.7106L123.438 69.4898L118.006 70.2534C117.258 70.395 116.607 71.0477 116.579 71.7151C116.724 72.4819 117.419 72.8799 118.191 72.8662L125.741 71.834L129.381 75.5138L123.949 76.2774C123.201 76.4189 122.55 77.0717 122.695 77.8386C122.84 78.6054 123.535 79.0034 124.433 78.8336L131.809 77.7019L141.343 87.1501C131.559 87.0165 122.293 83.0779 115.433 76.3008ZM155.176 138.943C156.454 137.51 156.713 135.607 156.124 134.13C156.568 134.84 157.138 135.394 157.857 135.92C158.378 136.219 159.049 136.489 159.546 136.66C157.872 137.638 156.199 138.617 154.674 139.568C154.776 139.284 154.901 139.128 155.176 138.943ZM185.14 132.741C203.086 129.344 220.848 132.336 233.45 140.806L210.569 145.138L213.991 138.665C214.318 137.941 214.024 137.203 213.203 136.961C212.383 136.719 211.51 137.017 211.182 137.741L207.003 145.945L198.778 147.502L202.026 140.93C202.354 140.206 202.059 139.468 201.239 139.226C200.419 138.984 199.545 139.281 199.218 140.005L195.164 148.054L186.64 149.668L190.062 143.195C190.39 142.471 190.095 141.732 189.274 141.491C188.454 141.249 187.581 141.546 187.253 142.27L183.075 150.475L174.55 152.089L177.972 145.616C178.3 144.892 178.005 144.153 177.185 143.912C176.364 143.67 175.491 143.967 175.164 144.691L170.835 152.924L162.61 154.482L166.032 148.009C166.36 147.285 166.065 146.546 165.245 146.304C164.424 146.062 163.551 146.36 163.223 147.084L159.045 155.289L143.042 158.318C151.754 145.416 167.193 136.139 185.14 132.741ZM134.596 118.612C134.972 118.143 135.324 117.547 135.527 116.979C134.964 119.734 134.425 122.616 133.761 125.654C133.769 124.064 133.03 122.615 131.442 121.592C130.897 121.166 130.25 121.023 129.454 120.909C131.297 120.825 133.319 120.045 134.596 118.612ZM126.023 119.97C126.569 120.396 127.215 120.539 128.012 120.653C126.468 120.68 124.996 121.091 123.795 122.113C124.649 120.892 124.706 119.557 124.464 118.279C124.759 119.018 125.328 119.572 126.023 119.97ZM122.542 123.674C121.11 125.931 121.667 128.87 124.099 130.263C126.729 131.884 130.642 131.275 132.672 128.905C133.048 128.437 133.4 127.841 133.627 127.401C132.804 132.058 131.905 137.126 131.203 142.422C128.474 136.187 124.249 130.235 118.774 125.049C119.995 124.95 121.317 124.568 122.542 123.674ZM57.5885 112.802C72.5439 109.971 88.8631 112.707 102.367 120.212C117.435 128.612 126.899 141.781 128.34 155.938L114.985 148.405L115.308 139.474C115.337 138.806 114.594 138.153 113.822 138.166C113.05 138.18 112.249 138.861 112.221 139.529L112.031 146.713L105.081 142.733L105.429 133.93C105.457 133.263 104.864 132.581 103.942 132.623C103.17 132.637 102.345 133.19 102.341 133.985L101.978 141.07L95.202 137.19L95.5493 128.387C95.5779 127.719 94.8345 127.066 94.0626 127.079C93.2906 127.093 92.49 127.774 92.4614 128.442L92.2482 135.499L85.4962 131.746L85.6698 122.843C85.6984 122.176 84.955 121.522 84.183 121.536C83.4111 121.55 82.6105 122.231 82.5819 122.898L82.3687 129.955L75.4187 125.975L75.6165 117.2C75.6451 116.533 74.9017 115.879 74.1298 115.893C73.3578 115.907 72.5572 116.588 72.5287 117.255L72.2912 124.184L53.7484 113.794C54.9207 113.439 56.2425 113.057 57.5885 112.802ZM77.8933 151.322C63.1488 142.993 53.5595 129.981 52.0176 116.107L70.7341 126.597L63.2234 129.475C62.4998 129.745 62.0226 130.497 62.3173 131.235C62.5878 131.846 63.2586 132.116 64.0064 131.975C64.156 131.946 64.156 131.946 64.3055 131.918L73.6879 128.289L80.4641 132.169L72.9534 135.047C72.2298 135.316 71.7767 136.197 72.0473 136.807C72.3178 137.418 72.9886 137.688 73.7364 137.547C73.8859 137.518 73.8859 137.518 74.0355 137.49L83.2683 133.889L90.2183 137.869L82.7075 140.747C81.984 141.016 81.5067 141.768 81.8014 142.507C82.072 143.118 82.7428 143.388 83.4905 143.246C83.6401 143.218 83.6401 143.218 83.7897 143.19L93.172 139.56L100.122 143.54L92.5871 146.29C91.8635 146.56 91.3862 147.312 91.681 148.05C91.9515 148.661 92.6223 148.931 93.3701 148.79C93.5196 148.761 93.5196 148.761 93.6692 148.733L103.076 145.231L109.852 149.112L102.491 151.962C101.767 152.231 101.29 152.983 101.585 153.722C101.855 154.332 102.526 154.603 103.274 154.461C103.423 154.433 103.423 154.433 103.573 154.404L112.83 150.931L126.011 158.365C124.838 158.719 123.642 158.946 122.446 159.172C107.741 161.691 91.4216 158.955 77.8933 151.322ZM124.331 201.047C126.849 200.438 128.677 198.636 129.037 196.449C129.198 198.934 129.532 201.519 129.968 203.819C129.007 202.016 126.772 200.85 124.331 201.047ZM86.8961 211.973C95.4207 210.359 104.506 210.89 113.057 213.508C123.92 216.879 132.401 223.217 137.162 231.186C137.505 232.18 138.022 233.274 138.365 234.268L125.515 230.213L123.594 221.707C123.449 220.94 122.605 220.57 121.857 220.712C120.96 220.882 120.482 221.634 120.603 222.273L122.059 229.146L114.329 226.771L112.384 218.136C112.239 217.369 111.395 217 110.647 217.141C109.75 217.311 109.272 218.063 109.393 218.703L110.999 225.548L103.094 223.072L101.15 214.438C101.005 213.671 100.16 213.301 99.4126 213.443C98.5153 213.613 98.038 214.365 98.159 215.004L99.6392 222.005L76.5966 214.85C79.7901 213.715 83.1572 212.681 86.8961 211.973ZM101.168 238.264C89.1375 234.452 79.8166 226.949 75.585 217.689L98.1305 224.674L91.46 228.717C90.7606 229.114 90.6066 229.937 91.0267 230.52C91.4226 230.974 91.9197 231.145 92.5179 231.032C92.6674 231.004 92.9665 230.947 93.0919 230.791L101.412 225.641L109.143 228.017L102.496 232.188C101.797 232.585 101.643 233.408 102.063 233.991C102.459 234.446 102.956 234.616 103.554 234.503C103.704 234.475 104.003 234.418 104.128 234.262L112.448 229.112L120.353 231.588L113.557 235.787C112.857 236.184 112.704 237.007 113.124 237.59C113.52 238.044 114.017 238.215 114.615 238.102C114.764 238.074 115.063 238.017 115.189 237.861L123.658 232.683L136.659 236.709C133.514 238.099 130.272 238.977 126.832 239.628C118.655 241.441 109.719 240.882 101.168 238.264ZM190.606 229.541C185.286 232.534 179.498 234.689 173.515 235.822C167.384 236.983 161.208 237.093 155.586 236.038L167.751 229.102L176.471 232.614C176.795 232.686 177.118 232.757 177.417 232.7C177.866 232.615 178.29 232.403 178.517 231.962C178.868 231.366 178.55 230.5 177.879 230.23L170.847 227.457L177.841 223.485L187.035 227.04C187.358 227.111 187.681 227.183 187.98 227.126C188.429 227.041 188.853 226.828 189.08 226.388C189.432 225.792 189.113 224.926 188.442 224.656L180.914 221.712L188.183 217.556L197.723 221.31C198.047 221.381 198.37 221.452 198.669 221.396C199.118 221.311 199.542 221.098 199.769 220.658C200.121 220.062 199.802 219.196 199.131 218.925L191.255 215.783L212.511 203.683C209.791 213.862 201.946 223.158 190.606 229.541ZM175.189 207.836C180.509 204.843 186.297 202.688 192.28 201.556C198.711 200.338 205.21 200.299 211.005 201.453L190.298 213.184L190.806 206.865C190.835 206.198 190.241 205.516 189.469 205.53C188.697 205.543 187.872 206.097 187.844 206.764L187.076 214.985L179.658 219.17L180.243 212.439C180.271 211.772 179.678 211.09 178.906 211.104C178.134 211.118 177.309 211.671 177.28 212.338L176.561 220.815L168.993 225.028L169.655 217.886C169.684 217.218 169.09 216.536 168.318 216.55C167.546 216.564 166.721 217.117 166.693 217.785L165.921 226.801L153.182 233.978C155.628 223.983 163.699 214.247 175.189 207.836ZM154.031 206.546C153.699 208.065 154.139 209.57 155.128 210.707C154.931 210.479 154.583 210.28 154.236 210.081C153.019 209.385 151.577 209.128 150.206 209.255C151.379 208.901 152.652 208.263 153.38 207.198C153.655 207.014 153.756 206.73 154.031 206.546ZM146.892 218.753C149.522 220.373 153.435 219.765 155.465 217.395C157.095 215.365 157.06 212.724 155.351 211.062C155.549 211.289 155.896 211.488 156.244 211.687C157.31 212.412 158.579 212.569 159.974 212.57C154.992 217.352 151.227 222.831 149.054 228.537C147.581 224.845 146.184 220.74 145.086 216.579C145.232 217.346 145.999 218.128 146.892 218.753ZM191.914 168.528C173.967 171.925 156.206 168.933 143.603 160.463L159.606 157.433L166.494 163.543C166.866 163.87 167.339 163.913 167.787 163.828C168.086 163.771 168.361 163.587 168.636 163.402C169.311 162.877 169.316 162.082 168.746 161.528L163.195 156.754L171.72 155.14L178.434 161.15C178.806 161.477 179.303 161.648 179.752 161.563C180.051 161.506 180.326 161.322 180.451 161.166C181.126 160.641 181.131 159.846 180.561 159.291L175.135 154.361L183.361 152.804L190.249 158.914C190.621 159.241 191.094 159.283 191.542 159.198C191.841 159.142 192.116 158.957 192.391 158.773C193.066 158.248 193.071 157.453 192.501 156.899L186.95 152.124L195.175 150.567L202.213 156.649C202.585 156.976 203.058 157.018 203.507 156.934C203.806 156.877 204.081 156.692 204.356 156.508C205.031 155.983 205.035 155.188 204.466 154.634L198.914 149.86L207.439 148.246L214.327 154.356C214.699 154.682 215.172 154.725 215.621 154.64C215.92 154.584 216.195 154.399 216.47 154.215C217.145 153.69 217.149 152.895 216.579 152.341L211.028 147.566L233.91 143.235C225.3 155.853 209.861 165.13 191.914 168.528Z" fill="black"/>
</g>
<defs>
<clipPath id="clip0_20_504">
<rect width="217.81" height="333" fill="white" transform="translate(0.96875 40.5127) rotate(-10.7195)"/>
</clipPath>
</defs>
</svg>
