<svg width="60" height="60" viewBox="0 0 60 60" fill="none" xmlns="http://www.w3.org/2000/svg">
<path d="M31.875 22.75C32.9105 22.75 33.75 21.9105 33.75 20.875C33.75 19.8395 32.9105 19 31.875 19C30.8395 19 30 19.8395 30 20.875C30 21.9105 30.8395 22.75 31.875 22.75Z" fill="white"/>
<path d="M28.4447 26.1617C28.2599 26.237 28.0912 26.3501 27.9481 26.4946C27.805 26.6391 27.6904 26.812 27.6109 27.0035C27.5314 27.1949 27.4885 27.4011 27.4848 27.6101C27.4811 27.8191 27.5167 28.0268 27.5893 28.2213C28.0838 29.5756 28.1228 31.0681 27.7001 32.4492C27.2773 33.8303 26.4183 35.0164 25.2667 35.8091C24.1151 36.6017 22.7407 36.953 21.3732 36.8041C20.0057 36.6552 18.7281 36.0152 17.7539 34.9911C16.7797 33.967 16.168 32.6209 16.0211 31.1777C15.8742 29.7346 16.2009 28.2819 16.9466 27.0626C17.6924 25.8433 18.812 24.9312 20.1183 24.4789C21.4245 24.0265 22.8383 24.0613 24.1231 24.5774C24.4952 24.7266 24.9082 24.7136 25.2712 24.5413C25.6342 24.3689 25.9175 24.0514 26.0588 23.6585C26.2001 23.2657 26.1878 22.8296 26.0245 22.4464C25.8613 22.0631 25.5606 21.764 25.1885 21.6148C23.2635 20.846 21.1472 20.7968 19.192 21.4753C17.2368 22.1538 15.5608 23.5191 14.4432 25.3437C13.3255 27.1684 12.8337 29.3423 13.0497 31.5033C13.2657 33.6642 14.1764 35.6818 15.6301 37.22C17.3182 39.0001 19.6065 40 21.9924 40C24.3782 40 26.6665 39.0001 28.3546 37.22C29.5907 35.9184 30.4416 34.2655 30.804 32.4625C31.1663 30.6595 31.0243 28.7841 30.3953 27.0648C30.324 26.8697 30.2169 26.6916 30.08 26.5405C29.9432 26.3894 29.7794 26.2684 29.5981 26.1844C29.4167 26.1005 29.2215 26.0553 29.0235 26.0514C28.8255 26.0475 28.6288 26.085 28.4447 26.1617Z" fill="white"/>
<path d="M40.5589 19.4173C40.5593 17.3474 39.7654 15.36 38.3476 13.8817C36.9298 12.4034 35.0012 11.5521 32.976 11.5107C25.7178 10.8298 18.4138 10.8298 11.1556 11.5107C9.12469 11.5104 7.1751 12.3261 5.7275 13.7816C4.2799 15.2371 3.45036 17.2158 3.41786 19.2908C2.86071 26.7015 2.86071 34.145 3.41786 41.5558C3.41746 43.6256 4.2114 45.6131 5.6292 47.0914C7.04701 48.5697 8.9756 49.421 11.0008 49.4624C14.653 49.8102 18.3207 50 21.9884 50C25.6561 50 29.2773 49.8261 32.8986 49.4624C34.9161 49.442 36.846 48.6173 38.2769 47.1639C39.7079 45.7106 40.5268 43.7436 40.5589 41.6823C41.147 34.2728 41.147 26.8268 40.5589 19.4173ZM37.4638 41.5558C37.4638 42.8139 36.9747 44.0206 36.1041 44.9102C35.2334 45.7999 34.0525 46.2997 32.8212 46.2997H32.6665C25.5131 47.0113 18.309 47.0113 11.1556 46.2997C10.5353 46.2999 9.92135 46.1732 9.34986 45.9269C8.77836 45.6806 8.26096 45.3198 7.82819 44.8658C7.39542 44.4118 7.05607 43.8738 6.83017 43.2836C6.60428 42.6933 6.49641 42.0628 6.51295 41.4293C5.97131 34.1024 5.97131 26.7442 6.51295 19.4173C6.51267 18.7822 6.63721 18.1534 6.87919 17.5684C7.12116 16.9833 7.47565 16.4539 7.92162 16.0115C8.36758 15.569 8.89596 15.2226 9.4754 14.9928C10.0548 14.7629 10.6736 14.6543 11.2949 14.6733C14.8439 14.3465 18.4033 14.1779 21.9729 14.1673C25.5426 14.1568 29.1587 14.3254 32.8212 14.6733C33.4415 14.6731 34.0554 14.7999 34.6269 15.0462C35.1984 15.2924 35.7158 15.6532 36.1486 16.1072C36.5814 16.5612 36.9207 17.0992 37.1466 17.6895C37.3725 18.2797 37.4804 18.9103 37.4638 19.5438C38.0519 26.8688 38.0519 34.2307 37.4638 41.5558Z" fill="white"/>
</svg>
