<svg width="44" height="1676" viewBox="0 0 44 1676" fill="none" xmlns="http://www.w3.org/2000/svg">
<path d="M42 30.2862C42 45.9082 33.3823 58.5724 22.7519 58.5724C12.1214 58.5724 3.50376 45.9082 3.50376 30.2862C3.50376 14.6642 12.1214 2 22.7519 2C33.3823 2 42 14.6642 42 30.2862Z" fill="#BB641D"/>
<path d="M40.4962 612.981C40.4962 628.603 31.8786 641.268 21.2481 641.268C10.6177 641.268 2 628.603 2 612.981C2 597.359 10.6177 584.695 21.2481 584.695C31.8786 584.695 40.4962 597.359 40.4962 612.981Z" fill="#BB641D"/>
<path d="M42 1082.53C42 1098.15 33.3823 1110.82 22.7519 1110.82C12.1214 1110.82 3.50376 1098.15 3.50376 1082.53C3.50376 1066.91 12.1214 1054.25 22.7519 1054.25C33.3823 1054.25 42 1066.91 42 1082.53Z" fill="#BB641D"/>
<path d="M40.4962 1645.43C40.4962 1661.05 31.8786 1673.71 21.2481 1673.71C10.6177 1673.71 2 1661.05 2 1645.43C2 1629.81 10.6177 1617.14 21.2481 1617.14C31.8786 1617.14 40.4962 1629.81 40.4962 1645.43Z" fill="#BB641D"/>
<path d="M21.2481 1673.71C31.8786 1673.71 40.4962 1661.05 40.4962 1645.43C40.4962 1629.81 31.8786 1617.14 21.2481 1617.14C10.6177 1617.14 2 1629.81 2 1645.43C2 1661.05 10.6177 1673.71 21.2481 1673.71ZM21.2481 1673.71V58.5675M42 30.2862C42 45.9082 33.3823 58.5724 22.7519 58.5724C12.1214 58.5724 3.50376 45.9082 3.50376 30.2862C3.50376 14.6642 12.1214 2 22.7519 2C33.3823 2 42 14.6642 42 30.2862ZM40.4962 612.981C40.4962 628.603 31.8786 641.268 21.2481 641.268C10.6177 641.268 2 628.603 2 612.981C2 597.359 10.6177 584.695 21.2481 584.695C31.8786 584.695 40.4962 597.359 40.4962 612.981ZM42 1082.53C42 1098.15 33.3823 1110.82 22.7519 1110.82C12.1214 1110.82 3.50376 1098.15 3.50376 1082.53C3.50376 1066.91 12.1214 1054.25 22.7519 1054.25C33.3823 1054.25 42 1066.91 42 1082.53Z" stroke="#BB641D" stroke-width="4"/>
</svg>
