<svg width="38" height="1114" viewBox="0 0 38 1114" fill="none" xmlns="http://www.w3.org/2000/svg">
<path d="M36 20.4539C36 30.6458 28.8366 38.9079 20 38.9079C11.1634 38.9079 4 30.6458 4 20.4539C4 10.2621 11.1634 2 20 2C28.8366 2 36 10.2621 36 20.4539Z" fill="#BB641D"/>
<path d="M34.75 400.605C34.75 410.797 27.5866 419.059 18.75 419.059C9.91344 419.059 2.75 410.797 2.75 400.605C2.75 390.413 9.91344 382.151 18.75 382.151C27.5866 382.151 34.75 390.413 34.75 400.605Z" fill="#BB641D"/>
<path d="M36 706.941C36 717.133 28.8366 725.395 20 725.395C11.1634 725.395 4 717.133 4 706.941C4 696.749 11.1634 688.487 20 688.487C28.8366 688.487 36 696.749 36 706.941Z" fill="#BB641D"/>
<path d="M34.75 1092.63C34.75 1102.82 27.5866 1111.08 18.75 1111.08C9.91344 1111.08 2.75 1102.82 2.75 1092.63C2.75 1082.44 9.91344 1074.17 18.75 1074.17C27.5866 1074.17 34.75 1082.44 34.75 1092.63Z" fill="#BB641D"/>
<path d="M18.75 1111.08C27.5866 1111.08 34.75 1102.82 34.75 1092.63C34.75 1082.44 27.5866 1074.17 18.75 1074.17C9.91344 1074.17 2.75 1082.44 2.75 1092.63C2.75 1102.82 9.91344 1111.08 18.75 1111.08ZM18.75 1111.08V38.9047M36 20.4539C36 30.6458 28.8366 38.9079 20 38.9079C11.1634 38.9079 4 30.6458 4 20.4539C4 10.2621 11.1634 2 20 2C28.8366 2 36 10.2621 36 20.4539ZM34.75 400.605C34.75 410.797 27.5866 419.059 18.75 419.059C9.91344 419.059 2.75 410.797 2.75 400.605C2.75 390.413 9.91344 382.151 18.75 382.151C27.5866 382.151 34.75 390.413 34.75 400.605ZM36 706.941C36 717.133 28.8366 725.395 20 725.395C11.1634 725.395 4 717.133 4 706.941C4 696.749 11.1634 688.487 20 688.487C28.8366 688.487 36 696.749 36 706.941Z" stroke="#BB641D" stroke-width="4"/>
</svg>
