<svg width="274" height="309" viewBox="0 0 274 309" fill="none" xmlns="http://www.w3.org/2000/svg">
<path d="M248.42 284.859C248.42 284.618 248.42 284.256 248.312 284.014V24.8647C248.312 22.2093 246.386 20.0366 244.031 20.0366C243.817 20.0366 243.71 20.0366 243.496 20.0366L176.066 28.9687H64.3258C61.757 28.9687 59.7234 31.5034 60.0445 34.4003C62.2922 53.4714 79.8453 115.875 94.1875 115.875C113.025 115.875 126.725 115.875 145.562 115.875C152.627 115.875 160.654 100.666 167.183 83.0437C214.491 127.825 209.032 215.334 202.396 260.719H56.8336C56.6195 260.719 56.4055 260.719 56.1914 260.719C55.9773 260.719 55.8703 260.719 55.6562 260.719C53.3016 260.719 51.375 262.891 51.375 265.547V284.859C51.375 287.515 53.3016 289.687 55.6562 289.687C55.8703 289.687 55.9773 289.687 56.1914 289.687C56.4055 289.687 56.6195 289.687 56.8336 289.687H202.396H242.961H244.031C245.744 289.687 247.349 288.48 247.991 286.79C248.205 286.187 248.42 285.583 248.42 284.859ZM145.027 106.219H94.7227C92.7961 104.891 86.9094 97.528 79.4172 75.5601C74.7078 61.9206 71.0688 47.7983 69.3563 38.6249H170.822C169.109 47.6776 165.363 61.7999 160.547 75.5601C152.948 97.528 146.954 105.012 145.027 106.219ZM199.078 280.031H59.9375V270.375H200.791C200.148 274.117 199.613 277.255 199.078 280.031ZM207.748 280.031C211.173 262.288 216.524 227.525 215.026 190.228C214.062 166.087 210.316 144.482 203.895 126.014C196.402 104.408 185.271 86.7854 170.608 73.6288L181.204 37.9007L239.75 30.1757V280.031H207.748Z" fill="black"/>
<path d="M64.5398 134.825C64.7539 134.946 64.968 135.067 65.2891 135.067C58.4391 145.206 51.375 162.949 51.375 193.125C51.375 232.112 55.3352 244.907 57.9039 249.011C58.6531 250.338 60.0445 251.062 61.4359 251.062H177.565C179.384 251.062 181.097 249.735 181.632 247.804C183.238 242.493 184.201 228.732 184.201 193.125C184.201 164.398 177.351 146.896 170.394 136.515L179.277 127.221C180.669 125.652 179.705 123.117 177.779 123.117H174.568H168.788H155.516H82.4141C82.4141 123.117 70.4266 120.462 59.9375 115.875C55.2281 113.823 52.9805 111.65 52.0172 109.961C50.9469 108.029 48.6992 107.184 46.7727 108.15C37.4609 112.495 17.125 125.531 17.125 154.5C17.125 181.9 26.2227 206.764 31.1461 218.111C32.5375 221.249 36.3906 221.732 38.3172 218.955L41.7422 214.852C42.9195 213.282 43.0266 210.989 42.0633 209.299C38.3172 202.661 29.9688 184.555 29.9688 154.5C29.9688 119.255 59.1883 132.291 64.5398 134.825ZM174.033 241.406H64.0047C62.5062 236.94 59.9375 224.629 59.9375 193.125C59.9375 161.139 68.2859 145.085 74.3867 137.602H159.691C166.22 144.844 175.424 160.897 175.424 193.125C175.531 217.869 174.996 234.043 174.033 241.406Z" fill="black"/>
<path d="M157.443 182.141L143.957 184.072C143.101 184.193 142.137 184.193 141.281 184.072L117.841 180.813L94.6156 177.554C93.7594 177.433 92.7961 177.433 91.9398 177.554L75.35 179.848C71.3898 180.451 68.5 183.348 68.5 186.728C68.5 186.728 68.5 198.556 68.5 198.798C68.7141 215.817 69.6773 225.956 70.6406 231.75H166.22C166.541 225.353 166.862 214.972 166.862 198.315V189.021C166.969 184.796 162.366 181.417 157.443 182.141Z" fill="black"/>
<path d="M233.328 193.125C233.328 192.401 232.9 191.918 232.258 191.918H225.836C225.836 191.194 225.836 190.47 225.729 189.625C225.515 184.676 225.194 179.727 224.766 175.02H231.187C231.83 175.02 232.258 174.537 232.258 173.812C232.258 173.088 231.83 172.605 231.187 172.605H224.551C224.016 166.812 223.267 161.139 222.411 155.707H229.154C229.796 155.707 230.224 155.224 230.224 154.5C230.224 153.776 229.796 153.293 229.154 153.293H222.09C221.126 147.499 219.842 141.826 218.451 136.395H224.873C225.515 136.395 225.943 135.912 225.943 135.188C225.943 134.463 225.515 133.98 224.873 133.98H217.809C216.203 128.066 214.384 122.514 212.35 117.082H218.451C219.093 117.082 219.521 116.599 219.521 115.875C219.521 115.151 219.093 114.668 218.451 114.668H211.494C209.139 108.754 206.57 103.08 203.68 97.7695H209.995C210.637 97.7695 211.066 97.2867 211.066 96.5625C211.066 95.8383 210.637 95.3555 209.995 95.3555H202.396C198.971 89.3203 195.118 83.6473 190.944 78.457H197.151C197.794 78.457 198.222 77.9742 198.222 77.25C198.222 76.5258 197.794 76.043 197.151 76.043H188.91C186.769 73.5082 184.522 71.0941 182.167 68.6801C181.311 67.8352 179.919 67.8352 179.17 68.9215C178.421 69.8871 178.421 71.4563 179.384 72.3012C205.286 98.2523 219.521 137.722 221.662 189.866C222.946 221.128 219.521 250.7 216.31 269.892C216.096 271.22 216.845 272.427 218.023 272.668C218.13 272.668 218.237 272.668 218.451 272.668C219.414 272.668 220.377 271.823 220.591 270.737C221.448 265.305 222.411 259.029 223.16 252.149H229.261C229.903 252.149 230.331 251.666 230.331 250.942C230.331 250.218 229.903 249.735 229.261 249.735H223.481C224.123 244.424 224.659 238.751 225.087 232.836H231.401C232.044 232.836 232.472 232.354 232.472 231.629C232.472 230.905 232.044 230.422 231.401 230.422H225.301C225.729 224.991 225.943 219.318 226.157 213.524H232.579C233.221 213.524 233.649 213.041 233.649 212.317C233.649 211.593 233.221 211.11 232.579 211.11H226.264C226.371 205.557 226.371 199.884 226.264 194.211H232.686C232.9 194.332 233.328 193.849 233.328 193.125Z" fill="black"/>
</svg>
