<svg width="60" height="60" viewBox="0 0 60 60" fill="none" xmlns="http://www.w3.org/2000/svg">
<path d="M30.0489 10C26.5945 9.99837 23.1987 10.9145 20.1926 12.659C17.1865 14.4035 14.6727 16.9169 12.8963 19.9541C11.12 22.9912 10.1417 26.4484 10.057 29.9886C9.97219 33.5288 10.7838 37.031 12.4127 40.1539L10.0602 48.9967C9.9824 49.2732 9.97997 49.5663 10.0532 49.8442C10.1263 50.1221 10.2723 50.3741 10.4753 50.5729C10.6264 50.7144 10.8035 50.8235 10.9962 50.8938C11.189 50.9642 11.3935 50.9944 11.5978 50.9828C11.7352 51.0057 11.8754 51.0057 12.0129 50.9828L21.1001 48.3819C21.4936 48.2712 21.8281 48.0047 22.0299 47.6411C22.2318 47.2775 22.2845 46.8466 22.1764 46.4431C22.0684 46.0397 21.8084 45.6968 21.4537 45.4899C21.099 45.283 20.6787 45.229 20.2852 45.3398L13.7812 47.1367L15.5494 40.3588C15.6019 40.1585 15.6153 39.9497 15.5889 39.7441C15.5625 39.5385 15.4969 39.3403 15.3956 39.1608C13.5341 35.8555 12.7885 32.0129 13.2742 28.2289C13.76 24.4449 15.4502 20.931 18.0825 18.232C20.7148 15.533 24.1423 13.7998 27.8334 13.3011C31.5245 12.8025 35.2729 13.5663 38.4975 15.474C41.722 17.3818 44.2424 20.3269 45.6679 23.8527C47.0933 27.3785 47.3442 31.2879 46.3815 34.9748C45.4188 38.6616 43.2964 41.9198 40.3435 44.2441C37.3905 46.5684 33.7719 47.829 30.0489 47.8302C29.1011 47.8312 28.1549 47.7521 27.2197 47.5938C26.8181 47.5254 26.4064 47.623 26.075 47.8653C25.7435 48.1076 25.5193 48.4748 25.4515 48.8863C25.3847 49.298 25.48 49.7201 25.7164 50.0599C25.9527 50.3997 26.3109 50.6296 26.7123 50.699C29.4383 51.169 32.2296 51.0542 34.9101 50.3619C37.5906 49.6697 40.1018 48.415 42.2852 46.6772C44.4686 44.9394 46.2767 42.7562 47.5952 40.2657C48.9138 37.7751 49.714 35.0313 49.9455 32.2075C50.177 29.3837 49.8347 26.5414 48.9402 23.8602C48.0457 21.1789 46.6184 18.717 44.7486 16.63C42.8787 14.543 40.6069 12.8763 38.0768 11.7351C35.5466 10.5939 32.8131 10.0031 30.0489 10Z" fill="white"/>
<path d="M28.5112 22.9411L26.7276 20.4191C26.4589 20.0411 26.1136 19.7272 25.7156 19.4986C25.3175 19.2701 24.876 19.1324 24.4212 19.095C23.9642 19.0605 23.5052 19.1271 23.0754 19.2903C22.6457 19.4535 22.2552 19.7094 21.9303 20.0408L20.0852 21.9323C19.6729 22.3639 19.3511 22.8774 19.1396 23.4413C18.928 24.0051 18.8312 24.6073 18.8551 25.2109C18.8551 28.0009 20.9462 31.516 25.0055 35.6142C29.7567 40.343 33.0471 41.9193 35.292 41.9193C35.8627 41.9347 36.4303 41.8292 36.9594 41.6095C37.4885 41.3898 37.9678 41.0606 38.3672 40.6425L40.2123 38.751C40.548 38.4282 40.8088 38.0322 40.9753 37.5923C41.1418 37.1523 41.2099 36.6797 41.1745 36.2092C41.139 35.7387 41.001 35.2824 40.7707 34.8739C40.5403 34.4653 40.2233 34.1151 39.8433 33.8488L37.4293 32.0677C37.0274 31.7722 36.5644 31.5758 36.0763 31.4938C35.5883 31.4118 35.0883 31.4463 34.6155 31.5948L32.3244 32.3356C32.1813 32.3252 32.0434 32.2763 31.9247 32.1938C30.5602 31.1896 29.3434 29.9899 28.3113 28.6314C28.3012 28.5741 28.3012 28.5154 28.3113 28.458C28.5112 27.7645 28.8495 26.6453 29.0801 25.873C29.2293 25.3742 29.2555 24.8452 29.1562 24.3335C29.0569 23.8218 28.8353 23.3434 28.5112 22.9411ZM30.4947 34.968C31.3168 35.43 32.2829 35.5431 33.1855 35.2832L35.5534 34.5582L38.0289 36.5285L36.1992 38.3727C35.4611 39.1135 32.7396 38.8929 27.1889 33.3129C22.5761 28.726 21.9457 26.2197 21.9457 25.1479C21.9572 24.7843 22.1061 24.4396 22.3608 24.1864L24.329 22.3106L26.1433 24.9114C25.8973 25.6838 25.5437 26.8345 25.3591 27.5123C25.1401 28.2355 25.1672 29.0136 25.436 29.719C26.762 31.8197 28.5071 33.6086 30.5562 34.968H30.4947Z" fill="white"/>
</svg>
